<?xml version="1.0" standalone="no"?>
<!DOCTYPE svg PUBLIC "-//W3C//DTD SVG 20010904//EN"
 "http://www.w3.org/TR/2001/REC-SVG-20010904/DTD/svg10.dtd">
<svg version="1.0" xmlns="http://www.w3.org/2000/svg"
 width="150px" height="60px" viewBox="0 0 669.000000 247.000000"
 preserveAspectRatio="xMidYMid meet">

<g transform="translate(0.000000,247.000000) scale(0.100000,-0.100000)"
fill="#000000" stroke="none">
<path d="M3180 2450 c0 -5 -18 -13 -40 -16 -22 -4 -40 -10 -40 -15 0 -5 -13
-9 -29 -9 -16 0 -36 -7 -45 -15 -8 -8 -24 -15 -36 -15 -12 0 -28 -7 -36 -15
-9 -8 -28 -15 -44 -15 -16 0 -30 -7 -34 -15 -3 -8 -17 -15 -31 -15 -14 0 -25
-4 -25 -9 0 -5 -13 -12 -30 -16 -16 -4 -30 -11 -30 -16 0 -5 -11 -9 -25 -9
-16 0 -25 -6 -25 -15 0 -10 -10 -15 -30 -15 -20 0 -30 -5 -30 -15 0 -9 -9 -15
-24 -15 -13 0 -26 -7 -30 -15 -3 -8 -15 -15 -26 -15 -11 0 -20 -4 -20 -10 0
-5 -7 -10 -15 -10 -9 0 -18 -7 -21 -15 -4 -8 -17 -15 -30 -15 -15 0 -24 -6
-24 -15 0 -8 -7 -15 -15 -15 -8 0 -15 -7 -15 -15 0 -8 -9 -15 -20 -15 -12 0
-31 -11 -44 -25 -13 -14 -28 -25 -35 -25 -6 0 -11 -7 -11 -15 0 -8 -9 -15 -20
-15 -11 0 -37 -18 -59 -40 -21 -22 -44 -40 -50 -40 -6 0 -11 -7 -11 -15 0 -8
-7 -15 -15 -15 -8 0 -15 -7 -15 -15 0 -8 -7 -15 -15 -15 -8 0 -15 -7 -15 -15
0 -8 -5 -15 -11 -15 -14 0 -69 -55 -69 -69 0 -6 -7 -11 -15 -11 -8 0 -15 -7
-15 -15 0 -8 -7 -15 -15 -15 -8 0 -15 -5 -15 -11 0 -7 -11 -22 -25 -35 -14
-13 -25 -28 -25 -34 0 -5 -7 -10 -15 -10 -9 0 -15 -9 -15 -25 0 -16 -6 -25
-15 -25 -8 0 -15 -7 -15 -15 0 -8 -4 -15 -9 -15 -5 0 -12 -11 -15 -25 -4 -14
-11 -25 -16 -25 -6 0 -10 -7 -10 -15 0 -9 -7 -18 -15 -21 -8 -4 -15 -17 -15
-30 0 -15 -6 -24 -15 -24 -9 0 -15 -9 -15 -25 0 -14 -4 -25 -9 -25 -5 0 -12
-13 -16 -30 -4 -17 -10 -30 -15 -30 -4 0 -10 -18 -14 -40 -3 -22 -11 -40 -16
-40 -6 0 -10 -18 -10 -40 0 -27 -5 -43 -15 -46 -11 -5 -15 -21 -15 -59 0 -34
-5 -55 -12 -57 -10 -4 -14 -54 -16 -195 -3 -162 -1 -193 12 -206 9 -9 16 -32
16 -52 0 -20 7 -43 15 -51 8 -9 15 -29 15 -45 0 -16 4 -29 9 -29 5 0 12 -12
16 -27 3 -15 17 -37 31 -50 13 -12 24 -27 24 -33 0 -5 4 -10 10 -10 5 0 12
-11 16 -25 3 -14 12 -25 20 -25 8 0 14 -4 14 -10 0 -5 11 -12 25 -16 14 -3 25
-12 25 -20 0 -8 7 -14 15 -14 8 0 15 -4 15 -9 0 -5 11 -12 25 -15 14 -4 25
-11 25 -16 0 -6 14 -10 30 -10 20 0 30 -5 30 -15 0 -11 13 -15 54 -15 35 0 56
-5 58 -12 3 -10 46 -14 155 -16 126 -3 153 -1 166 12 10 11 34 16 71 16 43 0
56 3 56 15 0 11 11 15 40 15 29 0 40 4 40 15 0 10 10 15 30 15 17 0 30 4 30
10 0 5 11 12 25 16 14 3 25 10 25 15 0 5 7 9 15 9 8 0 15 7 15 15 0 8 9 15 20
15 11 0 37 18 59 40 21 22 44 40 50 40 6 0 11 7 11 15 0 8 7 15 15 15 8 0 15
7 15 15 0 8 7 15 15 15 8 0 15 7 15 15 0 8 4 15 10 15 5 0 12 11 16 25 3 14
10 25 15 25 5 0 9 7 9 15 0 8 7 15 15 15 9 0 15 9 15 25 0 14 7 28 15 31 8 4
15 16 15 29 0 13 7 25 15 29 9 3 15 19 15 41 0 19 4 35 9 35 6 0 13 20 17 45
3 25 10 45 15 45 5 0 9 81 9 180 0 99 -4 180 -9 180 -4 0 -11 19 -14 41 -3 23
-10 45 -15 48 -5 3 -12 23 -16 44 -4 20 -11 37 -16 37 -6 0 -10 7 -10 15 0 8
-7 15 -15 15 -9 0 -15 9 -15 25 0 16 -6 25 -15 25 -8 0 -15 7 -15 15 0 8 -7
15 -15 15 -8 0 -15 7 -15 15 0 8 -7 15 -15 15 -8 0 -15 4 -15 10 0 5 -11 12
-25 16 -14 3 -25 12 -25 20 0 8 -7 14 -15 14 -8 0 -15 5 -15 10 0 6 -18 10
-40 10 -29 0 -40 4 -40 15 0 13 -22 15 -134 15 -110 0 -135 -3 -140 -15 -3
-10 -19 -15 -46 -15 -22 0 -40 -4 -40 -10 0 -5 -18 -13 -40 -16 -22 -4 -40
-10 -40 -15 0 -5 -9 -9 -19 -9 -11 0 -26 -7 -35 -15 -19 -19 -66 -20 -66 -1 0
8 7 21 15 30 8 8 15 22 15 30 0 9 4 16 10 16 5 0 12 11 16 25 3 14 12 25 20
25 8 0 14 7 14 15 0 8 4 15 10 15 5 0 12 11 16 25 3 14 10 25 15 25 5 0 9 7 9
15 0 8 7 15 15 15 8 0 15 7 15 15 0 8 7 15 15 15 8 0 15 7 15 15 0 8 7 15 15
15 8 0 15 5 15 11 0 6 6 17 14 25 8 8 19 14 25 14 6 0 11 7 11 15 0 8 7 15 15
15 8 0 15 5 15 11 0 14 55 69 69 69 6 0 11 7 11 15 0 8 7 15 15 15 8 0 15 7
15 15 0 8 7 15 15 15 8 0 15 4 15 9 0 5 10 13 22 16 11 4 31 18 43 31 12 13
27 24 34 24 6 0 11 7 11 15 0 10 10 15 30 15 20 0 30 5 30 15 0 8 7 15 15 15
8 0 15 4 15 10 0 5 11 12 25 16 14 3 25 10 25 14 0 4 11 11 25 14 14 4 25 11
25 16 0 6 9 10 20 10 11 0 20 7 20 15 0 9 9 15 25 15 16 0 25 6 25 15 0 10 10
15 30 15 17 0 30 4 30 10 0 5 11 12 25 16 14 3 25 10 25 14 0 5 14 11 30 15
27 6 30 10 30 45 0 21 -7 45 -15 54 -8 8 -15 19 -15 25 0 6 -13 11 -30 11 -16
0 -30 -4 -30 -10z m-694 -1115 c4 -10 20 -15 45 -15 28 0 39 -4 39 -15 0 -9 9
-15 25 -15 16 0 25 -6 25 -15 0 -8 6 -15 14 -15 8 0 17 -11 20 -25 4 -14 11
-25 16 -25 6 0 10 -7 10 -15 0 -8 7 -15 15 -15 10 0 15 -10 15 -29 0 -16 5
-31 12 -33 6 -2 13 -31 16 -66 2 -34 8 -62 13 -62 5 0 9 -58 9 -130 0 -71 -4
-130 -9 -130 -5 0 -11 -30 -13 -67 -2 -39 -9 -68 -16 -71 -7 -2 -12 -21 -12
-43 0 -28 -4 -39 -15 -39 -9 0 -15 -9 -15 -24 0 -13 -7 -26 -15 -30 -8 -3 -15
-15 -15 -26 0 -12 -11 -31 -25 -44 -14 -13 -25 -28 -25 -35 0 -6 -7 -11 -15
-11 -8 0 -15 -7 -15 -15 0 -8 -7 -15 -15 -15 -8 0 -15 -4 -15 -10 0 -5 -7 -10
-15 -10 -8 0 -15 -7 -15 -15 0 -13 -21 -15 -125 -15 -104 0 -125 2 -125 15 0
9 -9 15 -25 15 -16 0 -25 6 -25 15 0 8 -7 15 -15 15 -8 0 -15 7 -15 15 0 8 -4
15 -10 15 -5 0 -12 11 -16 25 -3 14 -12 25 -20 25 -8 0 -14 10 -14 25 0 14 -4
25 -9 25 -5 0 -12 19 -16 43 -4 23 -12 45 -17 48 -14 9 -13 459 0 468 5 3 13
32 17 64 4 31 11 57 15 57 4 0 10 18 14 40 3 22 10 40 15 40 5 0 12 11 15 25
4 14 11 25 16 25 6 0 10 7 10 15 0 10 10 15 30 15 20 0 30 5 30 15 0 11 11 15
40 15 22 0 40 4 40 9 0 13 26 19 98 20 47 1 64 -3 68 -14z"/>
<path d="M4070 2420 c0 -5 -18 -10 -39 -10 -22 0 -46 -7 -55 -15 -8 -8 -28
-15 -45 -15 -16 0 -36 -7 -45 -15 -8 -8 -31 -15 -50 -15 -20 0 -36 -4 -36 -10
0 -5 -18 -13 -39 -16 -44 -7 -63 -40 -36 -60 21 -16 21 -130 0 -138 -12 -4
-15 -25 -15 -96 0 -49 -4 -90 -9 -90 -5 0 -12 -27 -16 -60 -4 -33 -11 -60 -16
-60 -5 0 -9 -24 -9 -54 0 -35 -5 -60 -15 -70 -10 -9 -15 -34 -15 -68 0 -32 -6
-62 -15 -74 -8 -11 -15 -41 -15 -71 0 -30 -5 -53 -12 -55 -7 -3 -14 -32 -16
-71 -2 -37 -8 -67 -12 -67 -5 0 -12 -29 -15 -65 -4 -36 -11 -65 -15 -65 -4 0
-10 -26 -12 -57 -3 -31 -10 -59 -16 -61 -8 -2 -12 -30 -12 -73 0 -55 -3 -69
-15 -69 -11 0 -15 -13 -15 -54 0 -30 -5 -56 -10 -58 -6 -2 -13 -33 -17 -71 -3
-37 -9 -67 -13 -67 -4 0 -10 -23 -12 -51 -3 -28 -10 -54 -16 -58 -5 -3 -11
-22 -12 -41 -5 -62 -2 -70 25 -70 14 0 28 -7 31 -15 4 -8 16 -15 28 -15 12 0
31 -7 42 -15 10 -8 36 -15 56 -15 20 0 38 -5 40 -12 2 -6 32 -13 69 -16 35 -3
67 -9 71 -15 10 -16 330 -15 335 1 3 7 21 12 43 12 21 0 45 7 54 15 8 8 26 15
41 15 14 0 28 7 31 15 4 8 17 15 30 15 15 0 24 6 24 15 0 8 7 15 15 15 8 0 15
4 15 9 0 5 11 12 25 15 14 4 25 11 25 16 0 6 7 10 15 10 8 0 15 7 15 15 0 8 7
15 15 15 8 0 15 7 15 15 0 8 7 15 15 15 8 0 15 5 15 11 0 14 25 39 39 39 6 0
11 6 11 14 0 8 7 16 15 20 8 3 15 14 15 25 0 10 7 21 15 25 8 3 15 12 15 21 0
8 4 15 10 15 5 0 12 11 16 25 3 14 10 25 14 25 4 0 11 11 14 25 4 14 11 25 16
25 6 0 10 14 10 30 0 20 5 30 15 30 11 0 15 11 15 39 0 25 5 41 15 45 11 4 15
21 15 60 0 35 5 56 13 59 16 5 18 434 1 445 -6 4 -14 24 -18 45 -4 20 -11 37
-16 37 -6 0 -10 11 -10 25 0 16 -6 25 -15 25 -8 0 -15 4 -15 9 0 19 -68 81
-89 81 -12 0 -21 6 -21 15 0 10 -10 15 -30 15 -16 0 -30 5 -30 10 0 6 -43 10
-110 10 -67 0 -110 -4 -110 -10 0 -5 -18 -10 -40 -10 -27 0 -43 -5 -46 -15 -4
-8 -17 -15 -30 -15 -15 0 -24 -6 -24 -15 0 -8 -9 -15 -20 -15 -11 0 -37 -18
-59 -40 -21 -22 -41 -40 -45 -40 -3 0 -6 11 -6 25 0 14 5 25 10 25 6 0 10 24
10 54 0 39 4 55 15 60 11 4 15 22 15 71 0 36 4 65 9 65 5 0 13 30 17 68 3 37
10 69 15 72 11 7 24 298 15 333 -6 25 -36 39 -36 17z m228 -949 c2 -6 10 -11
18 -11 8 0 14 -10 14 -25 0 -14 5 -25 10 -25 6 0 10 -48 10 -125 0 -69 -4
-125 -9 -125 -4 0 -11 -30 -14 -67 -4 -38 -11 -69 -17 -71 -5 -2 -10 -24 -10
-48 0 -30 -5 -46 -15 -50 -9 -4 -15 -19 -15 -41 0 -19 -7 -41 -15 -49 -8 -9
-15 -29 -15 -45 0 -19 -5 -29 -15 -29 -8 0 -15 -7 -15 -15 0 -8 -4 -15 -10
-15 -5 0 -12 -11 -16 -25 -3 -13 -15 -27 -25 -30 -10 -4 -19 -11 -19 -16 0 -5
-6 -9 -14 -9 -8 0 -16 -7 -20 -15 -3 -8 -17 -15 -31 -15 -14 0 -25 -4 -25 -10
0 -6 -35 -10 -85 -10 -50 0 -85 4 -85 10 0 6 -13 10 -30 10 -20 0 -30 5 -30
15 0 8 -4 15 -10 15 -5 0 -10 18 -10 40 0 22 4 40 9 40 4 0 11 26 14 57 3 32
11 59 17 61 5 2 10 28 10 57 0 34 5 59 15 69 9 9 15 34 15 66 0 32 6 57 15 66
10 10 15 35 15 70 0 30 4 54 9 54 5 0 12 14 16 30 4 17 10 30 15 30 4 0 11 11
14 25 4 14 11 25 16 25 6 0 10 7 10 15 0 8 7 15 15 15 8 0 15 7 15 15 0 8 7
15 15 15 8 0 15 7 15 15 0 9 9 15 25 15 16 0 25 6 25 15 0 10 10 15 30 15 17
0 30 4 30 9 0 5 8 12 18 15 29 8 116 -1 120 -13z"/>
<path d="M1546 2365 c-8 -8 -31 -15 -51 -15 -20 0 -43 -7 -51 -15 -9 -8 -29
-15 -45 -15 -16 0 -29 -4 -29 -9 0 -5 -13 -12 -30 -16 -16 -4 -30 -10 -30 -15
0 -4 -18 -10 -40 -14 -22 -3 -40 -11 -40 -16 0 -6 -13 -10 -30 -10 -20 0 -30
-5 -30 -15 0 -9 -9 -15 -25 -15 -14 0 -25 -4 -25 -9 0 -5 -13 -12 -30 -16 -16
-4 -30 -10 -30 -15 0 -4 -11 -11 -25 -14 -14 -4 -25 -11 -25 -16 0 -6 -11 -10
-25 -10 -14 0 -28 -7 -31 -15 -4 -8 -17 -15 -30 -15 -15 0 -24 -6 -24 -15 0
-8 -7 -15 -15 -15 -8 0 -15 -4 -15 -9 0 -5 -12 -12 -27 -16 -15 -3 -37 -17
-50 -31 -12 -13 -31 -24 -43 -24 -11 0 -20 -7 -20 -15 0 -8 -7 -15 -15 -15 -8
0 -15 -7 -15 -15 0 -8 -7 -15 -15 -15 -8 0 -15 -4 -15 -9 0 -5 -11 -12 -25
-15 -14 -4 -25 -11 -25 -16 0 -6 -7 -10 -15 -10 -8 0 -15 -7 -15 -15 0 -8 -7
-15 -15 -15 -8 0 -15 -7 -15 -15 0 -8 -7 -15 -15 -15 -8 0 -15 -7 -15 -15 0
-8 -5 -15 -11 -15 -14 0 -69 -55 -69 -69 0 -6 -5 -11 -11 -11 -14 0 -69 -55
-69 -69 0 -6 -7 -11 -15 -11 -8 0 -15 -7 -15 -15 0 -8 -7 -15 -15 -15 -8 0
-15 -7 -15 -15 0 -8 -7 -15 -15 -15 -8 0 -15 -7 -15 -15 0 -8 -4 -15 -9 -15
-5 0 -12 -11 -15 -25 -4 -14 -11 -25 -16 -25 -6 0 -10 -7 -10 -15 0 -8 -7 -15
-15 -15 -9 0 -15 -9 -15 -25 0 -14 -7 -28 -15 -31 -8 -4 -15 -12 -15 -20 0 -8
-4 -14 -10 -14 -5 0 -12 -11 -16 -25 -3 -14 -10 -25 -14 -25 -5 0 -11 -13 -15
-30 -4 -16 -11 -30 -16 -30 -5 0 -9 -11 -9 -25 0 -14 -7 -28 -15 -31 -9 -4
-15 -19 -15 -41 0 -19 -7 -41 -15 -49 -8 -9 -15 -28 -15 -44 0 -16 -6 -30 -12
-32 -10 -4 -14 -74 -16 -295 -2 -251 -1 -293 13 -306 8 -9 15 -27 15 -41 0
-13 7 -31 15 -40 8 -8 15 -26 15 -40 0 -16 6 -26 15 -26 8 0 15 -7 15 -15 0
-8 5 -15 10 -15 6 0 10 -7 10 -15 0 -8 7 -15 15 -15 8 0 15 -6 15 -14 0 -19
46 -66 65 -66 8 0 15 -7 15 -15 0 -8 9 -15 20 -15 11 0 20 -7 20 -15 0 -9 9
-15 25 -15 14 0 25 -4 25 -9 0 -5 13 -12 30 -16 17 -4 30 -10 30 -15 0 -4 23
-10 52 -12 29 -3 54 -11 56 -17 5 -16 329 -16 334 0 2 6 27 14 56 17 29 2 52
8 52 13 0 5 18 12 40 15 22 4 40 10 40 15 0 5 9 9 19 9 11 0 26 7 35 15 8 8
26 15 40 15 16 0 26 6 26 15 0 8 7 15 15 15 8 0 15 7 15 15 0 8 9 15 20 15 12
0 31 11 44 25 13 14 28 25 35 25 6 0 11 7 11 15 0 8 7 15 15 15 8 0 15 5 15
11 0 6 18 29 40 50 22 22 40 45 40 53 0 8 7 16 15 20 8 3 15 12 15 21 0 8 4
15 10 15 5 0 12 11 16 25 3 14 10 25 14 25 5 0 11 13 15 30 4 16 11 30 16 30
5 0 9 13 9 29 0 16 7 36 15 45 8 8 15 32 15 54 0 23 5 42 13 44 9 4 12 48 12
178 0 130 -3 174 -12 177 -8 3 -13 22 -13 45 0 22 -7 46 -15 54 -8 9 -15 26
-15 39 0 12 -7 25 -15 29 -8 3 -15 12 -15 21 0 8 -4 15 -10 15 -5 0 -12 11
-16 25 -3 14 -10 25 -15 25 -5 0 -9 7 -9 15 0 8 -7 15 -15 15 -8 0 -15 5 -15
10 0 6 -7 10 -15 10 -8 0 -15 7 -15 15 0 8 -6 15 -14 15 -8 0 -21 6 -28 13
-25 23 -76 47 -101 47 -14 0 -27 6 -30 13 -3 9 -38 12 -132 12 -94 0 -129 -3
-133 -12 -2 -8 -20 -13 -43 -13 -26 0 -42 -5 -45 -15 -4 -10 -20 -15 -45 -15
-28 0 -39 -4 -39 -15 0 -9 -9 -15 -24 -15 -13 0 -26 -4 -28 -8 -1 -5 -15 -12
-30 -16 -25 -6 -28 -4 -28 19 0 14 11 36 24 48 13 12 26 32 30 45 4 12 12 22
17 22 5 0 9 6 9 14 0 8 7 16 15 20 8 3 15 14 15 25 0 10 7 21 15 25 8 3 15 12
15 21 0 8 5 15 11 15 14 0 39 25 39 39 0 6 7 11 15 11 8 0 15 7 15 15 0 8 7
15 15 15 8 0 15 5 15 11 0 14 85 99 99 99 6 0 11 7 11 15 0 8 7 15 15 15 8 0
15 7 15 15 0 8 5 15 11 15 7 0 22 11 34 24 12 13 32 27 43 31 12 3 22 11 22
16 0 5 7 9 15 9 8 0 15 7 15 15 0 8 7 15 15 15 8 0 15 4 15 9 0 5 10 13 23 17
12 4 32 17 44 30 12 13 31 24 43 24 11 0 20 7 20 15 0 10 10 15 30 15 20 0 30
5 30 15 0 8 7 15 15 15 8 0 15 5 15 10 0 6 6 10 14 10 8 0 21 6 28 13 7 8 26
17 41 21 15 3 27 11 27 16 0 6 11 10 25 10 14 0 28 7 31 15 4 8 17 15 30 15
22 0 24 4 24 55 0 42 -3 55 -15 55 -8 0 -15 7 -15 15 0 8 -6 15 -14 15 -8 0
-21 -7 -30 -15z m-706 -1115 c0 -5 13 -10 29 -10 16 0 36 -7 45 -15 8 -8 21
-15 30 -15 17 0 66 -45 66 -61 0 -5 11 -20 25 -33 14 -13 25 -33 25 -45 0 -12
7 -24 15 -27 11 -5 15 -21 15 -59 0 -34 5 -59 15 -69 19 -19 22 -262 3 -268
-7 -3 -14 -32 -16 -71 -2 -37 -8 -67 -13 -67 -5 0 -12 -18 -15 -40 -4 -22 -10
-40 -14 -40 -5 0 -11 -14 -15 -30 -4 -17 -11 -30 -16 -30 -5 0 -9 -11 -9 -25
0 -16 -6 -25 -15 -25 -8 0 -15 -4 -15 -10 0 -5 -28 -38 -61 -72 l-62 -63 -114
0 c-76 0 -116 4 -121 12 -4 6 -20 15 -35 18 -15 4 -27 12 -27 17 0 13 -26 38
-39 38 -6 0 -11 6 -11 14 0 8 -6 21 -13 28 -8 7 -17 26 -21 41 -3 15 -11 27
-16 27 -6 0 -10 18 -10 41 0 23 -7 47 -16 56 -13 13 -15 47 -12 236 2 165 6
221 16 225 7 2 12 23 12 58 0 30 4 54 10 54 5 0 13 18 16 40 4 22 10 40 14 40
5 0 11 14 15 30 4 17 13 30 21 30 8 0 14 4 14 9 0 5 10 13 23 17 12 4 25 11
28 16 3 5 25 12 48 15 22 3 41 10 41 14 0 5 36 9 80 9 47 0 80 -4 80 -10z"/>
<path d="M5410 2371 c0 -5 -9 -13 -20 -16 -32 -10 -90 -70 -90 -93 0 -11 -5
-22 -12 -24 -19 -7 -23 -131 -6 -149 8 -8 18 -27 22 -42 3 -15 11 -27 16 -27
6 0 10 -7 10 -15 0 -8 7 -15 15 -15 8 0 15 -4 15 -10 0 -5 12 -13 27 -16 15
-4 34 -13 41 -21 19 -19 126 -17 146 2 8 8 23 15 34 15 11 0 22 7 26 15 3 8
12 15 21 15 8 0 15 7 15 15 0 8 4 15 9 15 5 0 12 11 15 25 4 14 11 25 16 25 6
0 10 41 10 100 0 82 -3 100 -15 100 -8 0 -15 7 -15 15 0 8 -4 15 -10 15 -5 0
-12 11 -16 25 -4 18 -13 25 -30 25 -15 0 -24 6 -24 15 0 12 -18 15 -100 15
-55 0 -100 -4 -100 -9z"/>
<path d="M6440 2171 c0 -5 -28 -11 -62 -13 -35 -3 -64 -10 -66 -16 -2 -7 -25
-12 -58 -12 -39 0 -56 -4 -60 -15 -4 -10 -21 -15 -55 -15 l-49 0 -6 -40 c-4
-22 -10 -40 -14 -40 -4 0 -11 -25 -15 -55 -3 -30 -10 -55 -14 -55 -5 0 -11
-24 -13 -54 -6 -74 -21 -86 -102 -86 l-66 0 0 -44 c0 -25 -5 -46 -12 -48 -6
-2 -13 -31 -16 -66 -2 -34 -8 -62 -13 -62 -15 0 -10 -28 7 -34 9 -3 38 -6 65
-6 l49 0 0 -50 c0 -27 -4 -50 -9 -50 -4 0 -11 -30 -14 -67 -4 -37 -11 -69 -15
-72 -5 -3 -12 -31 -14 -61 -3 -30 -11 -56 -17 -58 -7 -2 -11 -29 -11 -67 0
-40 -4 -65 -12 -67 -6 -2 -13 -32 -16 -69 -3 -35 -9 -67 -15 -70 -5 -4 -12
-31 -15 -60 -3 -30 -9 -57 -15 -60 -15 -10 -15 -291 1 -296 6 -3 12 -11 12
-19 0 -8 7 -14 15 -14 8 0 15 -7 15 -15 0 -8 7 -15 15 -15 8 0 15 -7 15 -15 0
-9 9 -15 24 -15 13 0 26 -7 30 -15 3 -8 16 -15 30 -15 13 0 26 -5 28 -12 5
-15 266 -17 276 -1 4 5 29 13 57 16 27 3 51 10 53 16 2 6 17 11 33 11 l30 0
-3 113 -3 112 -40 -3 c-22 -2 -41 -8 -43 -13 -5 -12 -102 -12 -102 0 0 5 -13
12 -29 16 -24 5 -30 12 -35 43 -7 46 4 202 15 202 4 0 11 32 15 70 3 39 10 70
14 70 4 0 10 26 12 57 3 31 10 59 16 61 8 2 12 28 12 67 0 47 4 64 15 69 11 4
15 22 15 70 0 35 5 66 10 68 6 2 13 28 17 58 3 30 12 60 19 67 9 9 49 13 132
13 l120 0 7 30 c4 17 10 30 15 30 4 0 11 11 14 25 4 14 11 25 16 25 6 0 10 9
10 19 0 11 7 26 15 35 8 8 15 24 15 35 0 12 5 21 10 21 6 0 10 9 10 20 0 19
-7 20 -160 20 -100 0 -160 4 -160 10 0 6 5 10 10 10 6 0 10 24 10 54 0 39 4
55 15 60 10 3 15 19 15 46 0 22 4 40 9 40 5 0 12 24 15 52 4 29 11 55 15 58 4
3 11 22 14 43 5 32 3 37 -14 37 -10 0 -19 -4 -19 -9z"/>
<path d="M5490 1781 c0 -5 -35 -11 -77 -13 -48 -2 -78 -8 -81 -16 -2 -7 -24
-12 -58 -12 l-54 0 0 -41 c0 -23 -7 -47 -15 -55 -10 -10 -15 -35 -15 -69 0
-32 -5 -55 -12 -57 -7 -3 -14 -32 -16 -71 -2 -37 -8 -67 -12 -67 -5 0 -11 -27
-15 -60 -4 -33 -11 -60 -16 -60 -5 0 -9 -24 -9 -54 0 -35 -5 -60 -15 -70 -10
-9 -15 -34 -15 -68 0 -32 -6 -62 -15 -74 -9 -12 -14 -42 -15 -81 0 -37 -5 -63
-12 -65 -6 -2 -13 -30 -16 -61 -2 -31 -8 -57 -12 -57 -5 0 -12 -29 -15 -65 -4
-36 -11 -65 -15 -65 -4 0 -10 -30 -13 -67 -4 -38 -11 -69 -17 -71 -5 -2 -10
-30 -10 -63 l0 -59 179 0 178 0 6 42 c3 24 11 44 16 46 6 2 11 31 11 67 0 47
4 64 15 69 11 4 15 21 15 60 0 30 5 56 10 58 6 2 13 33 17 71 3 37 9 67 13 67
4 0 10 28 14 63 3 34 11 63 16 65 6 2 10 30 10 62 0 39 5 64 15 74 10 9 15 34
15 69 0 34 5 57 12 59 6 2 13 31 16 66 2 34 8 62 12 62 4 0 11 32 15 70 4 39
11 70 15 70 4 0 10 25 12 56 3 31 9 59 15 62 6 4 12 36 15 71 3 37 10 67 16
69 7 2 12 15 12 28 0 23 -3 24 -60 24 -33 0 -60 -4 -60 -9z"/>
</g>
</svg>
